<?xml version="1.0" encoding="utf-8" ?>
<svg xmlns="http://www.w3.org/2000/svg" xmlns:xlink="http://www.w3.org/1999/xlink" width="65" height="130">
	<path transform="scale(0.101814 0.101814)" d="M312.039 338.381C319.022 295.859 312.871 288.777 352.824 266.167C377.756 252.057 403.029 238.387 428.208 224.718C433.448 221.873 438.912 217.877 444.65 216.299C453.616 217.528 457.516 227.805 449.563 233.719C443.612 238.145 435.474 241.531 428.907 245.119C410.337 255.263 391.873 265.605 373.359 275.852C336.92 296.02 334.693 293.348 330.257 338.41C340.231 339.112 350.073 339.58 359.931 341.451C418.036 352.48 462.948 395.93 481.249 451.699C514.988 458.957 538.768 528.157 490.724 538.891L475.749 656.595C482.533 668.158 489.057 669.653 487.814 686.937C484.067 739.048 475.878 791.112 470.408 843.125C469.131 855.264 468.394 868.054 466.105 880.02C464.868 886.486 460.288 891.529 458.515 897.902C450.011 928.465 444.921 979.329 443.735 1010.22C442.95 1030.68 445.754 1064.88 433.775 1082.66C417.937 1106.17 362.977 1107.4 337.073 1108.35C333.159 1108.49 325.398 1109.78 322.188 1107.59L321.881 1107.83C318.686 1110.05 308.794 1108.49 304.698 1108.31C268.015 1106.67 211.172 1109.3 201.262 1065.8C197.425 1048.96 198.25 1032.1 197.805 1014.99C197.312 996.093 188.69 904.3 179.238 889.693C172.663 879.531 173.34 864.887 172.038 853.25C166.927 807.573 161.299 761.947 156.299 716.263C154.421 699.112 148.071 678.826 159.288 663.461C160.964 661.165 163.145 659.329 164.776 656.978L165.027 656.612L149.869 540.188L143.239 537.213C116.21 523.811 120.936 496.961 132.842 474.162C139.336 461.725 147.538 455.622 160.717 451.46C183.178 380.042 240.2 342.339 312.039 338.381ZM307.281 356.549C246.96 359.939 200.859 396.588 178.954 451.327L383.484 451.413L462.086 451.307C439.625 393.249 391.043 358.228 327.779 355.958C326.277 365.179 324.156 388.123 321.493 395.84C317.937 406.148 303.605 401.034 304.367 389.965C304.781 383.943 310.587 360.779 308.888 356.638L307.281 356.549ZM168.711 469.637C165.144 469.831 161.504 469.784 158.309 471.562L157.933 471.769C144.362 479.381 126.8 521.805 160.462 521.833C264.787 521.919 369.113 521.866 473.438 521.831C478.338 521.821 484.422 522.436 489.062 520.859L489.458 520.728C509.936 513.796 495.809 477.475 481.34 470.828C473.084 467.034 244.948 469.435 224.707 469.439C206.076 469.442 187.327 469.014 168.711 469.637ZM167.856 539.432C172.345 571.753 176.307 604.144 180.388 636.518C180.963 641.076 181.184 646.173 182.378 650.575C189.297 653.982 238.937 651.631 250.125 651.632C272.37 651.634 451.838 653.422 457.376 651.337L458.354 650.778L460.163 638.719L473.09 539.657L167.856 539.432ZM187.339 668.839L187.052 669.034C181.353 672.557 169.322 668.3 170.774 685.744C174.998 736.487 183.103 787.083 188.342 837.762C189.684 850.755 188.765 878.871 199.735 887.212L200.556 887.361C209.2 890.899 245.831 888.708 256.699 888.713C314.208 888.741 374.425 890.667 431.639 888.548C437.542 888.329 443.874 888.398 446.558 881.876L446.965 880.708C450.043 877.459 466.805 717.24 468.21 704.829C472.81 664.192 467.306 669.56 432.735 669.523C414.723 669.504 191.6 671.251 187.339 668.839ZM427.79 905.778C420.873 908.928 381.11 906.75 370.908 906.751C352.506 906.752 210.87 909.048 203.732 906.328L202.52 905.757C210.184 953.294 215.71 987.52 215.627 1036.6L216.032 1036.82C220.857 1039.29 238.54 1037.37 244.42 1037.49C262.279 1037.85 258.348 1053.08 251.156 1055.39C249.557 1055.91 219.774 1056.21 218.054 1055.23L217.306 1054.72C220.437 1074.73 225.983 1078.48 245.04 1083.53C252.043 1085.38 297.586 1093.35 303.439 1089.05C306.849 1091.52 315.686 1090.46 319.943 1090.46C340.225 1090.46 404.134 1089.33 418.067 1073.58C421.621 1070.24 423.682 1058.96 424.08 1054.08C419.743 1056.95 325.199 1055.4 315.58 1055.4C311.326 1055.4 306.065 1055.94 301.922 1055.01C293.985 1053.22 289.922 1037.51 308.604 1037.43C318.49 1037.39 420.936 1039.1 425.207 1036.46L438.41 905.37C436.222 906.82 431.702 906.955 429.149 906.418L427.79 905.778Z"/>
	<path transform="scale(0.101814 0.101814)" d="M327.813 870.22L327.501 870.419C322.469 873.29 302.941 869.85 296.785 868.386C207.288 847.112 209.38 711.224 304.149 698.182C306.839 697.812 310.967 698.058 313.199 696.594L313.467 696.4C315.802 697.447 319.031 696.902 321.562 696.956C434.311 699.35 440.492 857.228 334.663 870.452C332.382 870.737 329.964 871.25 327.813 870.22ZM313.502 714.507L313.231 714.713C311.446 715.941 309.259 715.821 307.188 716.107C225.924 727.341 229.225 852.761 321.775 852.444C323.817 852.437 326.015 852.588 327.809 851.482C331.117 853.249 341.548 850.548 345.193 849.45C414.286 828.644 407.935 720.912 324.983 715.196C321.662 714.967 316.452 715.822 313.502 714.507Z"/>
	<path transform="scale(0.101814 0.101814)" d="M299.686 759.561C307.655 748.663 306.01 741.055 317.922 731.429C320.497 731.812 323.379 731.225 325.655 732.772L325.938 732.968C335.296 739.319 337.685 756.572 343.774 760.179C345.489 762.064 348.092 762.211 350.468 762.645C379.337 767.928 382.124 774.501 361.691 795.579C359.463 797.877 357.2 800.953 354.487 802.648C355.661 812.829 363.649 838.953 344.319 837.472C339.336 837.09 327.012 830.05 323.812 826.408C310.514 826.125 303.365 838.118 293.846 837.279C278.961 835.967 285.581 811.636 286.367 802.843C282.981 802.192 266.71 784.405 267.238 777.652C268.456 762.068 292.867 765.898 299.476 759.775L299.686 759.561ZM320.464 757.792C316.142 769.894 305.797 786.073 290.25 780.907C292.541 786.055 299.27 790.613 302.845 795.239L303.727 795.925C303.989 801.652 303.78 807.665 302.953 813.35C304.482 813.625 319.134 807.38 321.563 805.815C325.353 807.774 334.547 813.044 337.965 813.601C337.102 807.998 335.782 800.706 338.005 795.312L338.147 794.959C340.684 788.782 348.77 786.387 351.041 780.76C346.861 782.113 338.79 779.575 335.052 777.66C325.615 772.824 325.901 761.713 320.464 757.792Z"/>
</svg>
