<svg width="24" height="24" viewBox="0 0 24 24" fill="none" xmlns="http://www.w3.org/2000/svg">
	<path d="M23.7661 14.6696C23.6667 15.1052 23.5444 15.5319 23.3986 15.9471H18.3392L14.3573 11.9898H9.6366L5.65773 15.9471L0.601386 15.9471C0.455596 15.5319 0.332585 15.1052 0.233873 14.6696H2.2104L6.18926 10.713L17.8047 10.713L21.7896 14.6696H23.7661Z" fill="white"/>
	<path d="M21.4046 19.5202C21.2998 19.6508 21.1913 19.7784 21.0804 19.9037H16.2951L13.5972 17.221H10.3974L7.69956 19.9037L2.91733 19.9037C2.80647 19.7791 2.69864 19.6515 2.5931 19.5201L6.18698 15.9464L17.8047 15.9464L21.4046 19.5202Z" fill="white"/>
	<path d="M24 10.7122H18.3392L14.3573 6.75564L9.6366 6.75564L5.65773 10.7122L0 10.7122C0.648465 4.69127 5.77164 -5.44402e-07 11.9989 0C18.2261 5.44402e-07 23.3515 4.69127 24 10.7122Z" fill="white"/>
	<path d="M18.2891 22.2437C16.4561 23.3582 14.3042 24 11.9981 24C9.69203 24 7.5401 23.3582 5.70937 22.2437L8.06252 19.9037H15.9337L18.2891 22.2437Z" fill="#E0D1AA"/>
</svg>
